<svg width="115" height="34" viewBox="0 0 115 34" fill="none" xmlns="http://www.w3.org/2000/svg">
<path d="M0 13.4V16H2.5V13.4H0Z" fill="black"/>
<path d="M11.6 5C10 5 8.8 5.7 8 6.7H7.9V0.5H5.9V16H7.9V10.7C7.9 8.6 9.2 7.1 11.2 7.1C13 7.1 14.1 8.5 14.1 10.3V16H16.1V9.9C16.2 6.9 14.3 5 11.6 5Z" fill="black"/>
<path d="M26.6 5.3H21.8V1.6H19.8V5.4H17.9V7.4H19.8V13.4C19.8 15.1 20.8 16.1 22.5 16.1H26.6V14.1H22.9C22.2 14.1 21.8 13.7 21.8 13V7.3H26.6V5.3Z" fill="black"/>
<path d="M41.1 5.1C39.5 5.1 38.2 5.9 37.6 7.2H37.5C36.9 6 35.7 5.1 34.1 5.1C32.7 5.1 31.6 5.9 31 6.9H30.9V5.3H29V15.9H31V10.5C31 8.5 32 7 33.6 7C35.1 7 36 8 36 9.6V15.9H38V10.3C38 7.9 39.4 7 40.6 7C42.1 7 43 8 43 9.6V15.9H45V9.4C45.1 6.9 43.6 5.1 41.1 5.1Z" fill="black"/>
<path d="M47.8 13.2C47.8 14.9 48.8 15.9 50.6 15.9H52.6V13.9H50.9C50.2 13.9 49.8 13.5 49.8 12.8V0.5H47.8V13.2Z" fill="black"/>
<path d="M28.9 20.2C28 19.1 26.7 18.4 25 18.4C21.9 18.4 19.6 20.7 19.6 24C19.6 27.3 21.9 29.6 25 29.6C26.8 29.6 28 28.8 28.8 27.7H28.9V29.3H30.9V18.7H28.9V20.2ZM25.3 27.6C23.1 27.6 21.7 26 21.7 24C21.7 22 23.1 20.4 25.3 20.4C27.5 20.4 28.9 22 28.9 24C28.9 25.9 27.5 27.6 25.3 27.6Z" fill="black"/>
<path d="M44.2 22.5C43.7 20.1 41.6 18.4 38.8 18.4C35.4 18.4 33.2 20.9 33.2 24C33.2 27.1 35.4 29.6 38.8 29.6C41.6 29.6 43.7 27.8 44.2 25.4H42.1C41.7 26.7 40.4 27.7 38.8 27.7C36.6 27.7 35.2 26.1 35.2 24.1C35.2 22.1 36.6 20.5 38.8 20.5C40.4 20.5 41.6 21.5 42.1 22.7H44.2V22.5Z" fill="black"/>
<path d="M55.1 20.2C54.2 19.1 52.9 18.4 51.2 18.4C48.1 18.4 45.8 20.7 45.8 24C45.8 27.3 48.1 29.6 51.2 29.6C53 29.6 54.2 28.8 55 27.7H55.1V29.3H57.1V18.7H55.1V20.2ZM51.5 27.6C49.3 27.6 47.9 26 47.9 24C47.9 22 49.3 20.4 51.5 20.4C53.7 20.4 55.1 22 55.1 24C55.1 25.9 53.6 27.6 51.5 27.6Z" fill="black"/>
<path d="M68.7 20.3C67.8 19.2 66.5 18.4 64.8 18.4C61.7 18.4 59.4 20.7 59.4 24C59.4 27.3 61.6 29.6 64.8 29.6C66.5 29.6 67.8 28.8 68.6 27.8H68.7V29.3H70.7V13.9H68.7V20.3ZM65.1 27.6C62.9 27.6 61.5 26 61.5 24C61.5 22 62.9 20.4 65.1 20.4C67.3 20.4 68.7 22 68.7 24C68.6 26 67.2 27.6 65.1 27.6Z" fill="black"/>
<path d="M78.3 18.4C75 18.4 72.8 20.9 72.8 24C72.8 27 74.9 29.6 78.3 29.6C80.8 29.6 82.8 28.3 83.5 26H81.4C80.9 27 79.8 27.6 78.4 27.6C76.5 27.6 75.1 26.3 75 24.7H83.8C84 21.1 81.8 18.4 78.3 18.4ZM78.3 20.3C80 20.3 81.3 21.3 81.6 22.9H75.1C75.4 21.4 76.6 20.3 78.3 20.3Z" fill="black"/>
<path d="M98.2 18.4C96.6 18.4 95.3 19.2 94.6 20.4H94.5C93.9 19.2 92.7 18.4 91.1 18.4C89.7 18.4 88.6 19.1 88 20.2V18.7H86.1V29.3H88.1V23.9C88.1 21.9 89.1 20.5 90.7 20.4C92.2 20.4 93.1 21.4 93.1 23V29.3H95.1V23.7C95.1 21.3 96.5 20.4 97.7 20.4C99.2 20.4 100.1 21.4 100.1 23V29.3H102.1V22.8C102.2 20.2 100.7 18.4 98.2 18.4Z" fill="black"/>
<path d="M109.4 27.5L105.8 18.6H103.6L108.4 30.2C108.1 31.1 107.7 31.4 106.7 31.4H104.2V33.4H106.7C108.5 33.4 109.5 32.6 110.2 30.8L114.9 18.6H112.8L109.4 27.5Z" fill="black"/>
</svg>
